<svg baseProfile="tiny" xmlns="http://www.w3.org/2000/svg" viewBox="0 0 391.6 99.2"><path fill="#DF0011" d="M46 28.9c-1.3.4-2.8.4-4.1-.3-2.6-1.3-3.7-4.5-2.4-7.1.7-1.3 1.8-2.2 3.1-2.7L51 16c-2.2-4.7-5.8-8.8-10.6-11.7-12.7-7.4-29.2-3.2-36.7 9.6S.4 43 13.1 50.5s29.1 3.3 36.7-9.4c2.7-4.6 3.9-9.7 3.7-14.7L46 28.9z"/><path fill="#0068B7" d="M78.7 2.1C71.5-2.1 62 .3 57.8 7.5c-4.2 7.2-1.7 16.6 5.4 20.9l1.8.9c-.1-1.2.1-2.5.8-3.6 1.7-2.8 5.3-3.8 8.2-2.1 2.1 1.2 3.1 3.5 2.9 5.7 2.9-1.2 5.5-3.4 7.3-6.3 4.2-7.2 1.8-16.6-5.5-20.9z"/><path fill="#009143" d="M46.4 71.5c-2.8-1.7-3.8-5.3-2.1-8.2.6-1 1.4-1.7 2.3-2.2-.6-.5-1.2-1-1.9-1.4-7.3-4.3-16.6-1.9-20.9 5.4-4.2 7.2-1.8 16.7 5.4 20.9 7.2 4.2 16.7 1.8 20.9-5.4 1.7-2.8 2.3-6 2.1-9-1.8.9-4 .9-5.8-.1z"/><path fill="#FCC800" d="M70.4 33.8c17.6 0 25.8 22.8 12.2 34-13.6 11.3-34.5-1.2-31-18.6 1.7-8.8 9.8-15.4 18.8-15.4z"/><path fill="#738792" d="M122.5 89.7v5c-1 .2-2.2.2-3.2 0v-5.2l-5-8.4c1.2-.2 2.5-.4 3.7-.1l2.6 4.5.5 1 .5-1 2.6-4.5c1.1-.3 2.3-.1 3.4.1l-5.1 8.6zm8.9-1.9c0-6.2 7.5-9.6 12.1-5.4 4.9 4.4 1.4 12.6-4.9 12.6-4.2.1-7.2-2.8-7.2-7.2zm10.9 0c0-3.3-3.8-6.1-6.4-3.2-2.2 2.4-.8 7.4 2.7 7.4 2.2.1 3.7-1.6 3.7-4.2zm19.1-3.9h-3.9v10.8c-1 .2-2.2.2-3.2 0V83.9h-3.9c-.2-.8-.2-2 0-2.8h10.9c.2.9.3 1.9.1 2.8zm5 9.4c.1-1.1.7-2 1.5-2.5 1.1.8 4.8 2.4 5.8.7.9-1.5-1.5-2-2.5-2.3-3-.8-5.9-3.4-3.5-6.6 2-2.7 6.7-2.3 9.1-.5-.1 1-.6 2.1-1.5 2.6-.9-.7-4.6-2.1-5.3-.4-.6 1.5 1.6 1.8 2.6 2 2.6.6 4.3 1.7 4.3 4.2.1 3-2 4.6-5.3 4.6-2.6-.1-4.3-1-5.2-1.8zm16.2-4.1V81c1-.2 2.2-.2 3.2 0v8.1c0 3.8 5.4 3.8 5.4 0V81c1-.2 2.1-.2 3.1 0v8.1c0 3.8-2.4 5.9-5.8 5.9-3.5.1-5.9-1.9-5.9-5.8zm25.2.5v5c-1 .2-2.2.2-3.2 0v-5.2l-5-8.4c1.2-.2 2.5-.4 3.7-.1l2.6 4.5.5 1 .5-1 2.6-4.5c1.1-.3 2.3-.1 3.4.1l-5.1 8.6zm21.2 4.8c-1.1.2-2.1.5-3.2.2l-1-2.7h-5.1l-1 2.7c-1 .2-2.1.1-3.1-.1l5.1-13.5c1-.2 2.2-.2 3.2 0l5.1 13.4zm-5.2-5.2l-1.1-3.1-.4-1.3-.4 1.3-1.1 3.1h3zm28.1 4c0 .5 0 1-.1 1.4H243V81c1.1-.2 2.1 0 3.2 0v10.8h5.6l.1 1.5zm14.5-4.6V94c-2.4 1-8.2 2.3-9.5-1.1-1.5-3.8 3.7-5 6.3-4.1v-.4c0-2.3-3.7-1.5-4.8-.6-.7-.4-1.2-1.1-1.4-2 3.1-2.6 9.4-2 9.4 2.9zm-4.6 4.1c.5 0 1-.1 1.5-.2v-1.8c-.9-.2-3-.6-3.2.6-.3 1.2.8 1.4 1.7 1.4zm21.1-3.3c0 5.5-6.4 6.5-10.5 4.5V80.7c1-.2 2.2-.2 3.2 0v3.8c.5-.2 1-.3 1.7-.3 3.2.1 5.6 1.9 5.6 5.3zm-3.2.2c0-2.3-2.2-3.1-4.1-2.3v4.8c.6.2 1 .2 1.5.2 1.7-.1 2.6-1.1 2.6-2.7zm8.1-.1c0-7.1 11-7.1 11 0 0 7-11 7.1-11 0zm7.9 0c0-3.5-4.7-3.4-4.7 0s4.7 3.6 4.7 0zm15.3-5c0 1-.3 2-.9 2.7-.9-.2-2-.2-2.8.2v7.2c-1 .2-2.2.2-3.2 0v-8.9c.7-.6 2.3-1.6 4.5-1.6 1 .1 1.8.2 2.4.4zm14.4 4.1V94c-2.4 1-8.2 2.3-9.5-1.1-1.5-3.8 3.7-5 6.3-4.1v-.4c0-2.3-3.7-1.5-4.8-.6-.7-.4-1.2-1.1-1.4-2 3.1-2.6 9.4-2 9.4 2.9zm-4.7 4.1c.5 0 1-.1 1.5-.2v-1.8c-.8-.2-2.7-.6-3.2.4-.6 1.2.8 1.6 1.7 1.6zm18.7 1.1c-2.3 2-7.4 1.4-7.4-2.3v-4.2h-1.7c-.2-.8-.2-1.8 0-2.6h1.7v-2.7c1-.2 2.1-.2 3.1 0v2.7h3.5c.2.9 0 1.7 0 2.6h-3.5v3.4c0 1.6 1.8 2 2.9.9.7.4 1.3 1.3 1.4 2.2zm4.8-4.3c0-7.1 11-7.1 11 0 0 7-11 7.1-11 0zm7.8 0c0-2.1-2.4-3.8-4.1-1.9-1.4 1.6-.5 4.6 1.8 4.6 1.5.1 2.3-1 2.3-2.7zm15.4-5c0 1-.3 2-.9 2.7-.9-.2-2-.2-2.8.2v7.2c-1 .2-2.2.2-3.2 0v-8.9c.7-.6 2.3-1.6 4.5-1.6 1 .1 1.8.2 2.4.4zm15.2.2c-.9 6.4-3.3 11.2-7.9 14.4-1-.3-1.6-1.3-1.9-2.2 1.1-.9 2.1-1.8 2.8-2.7-2.1-3.2-3-6-3.8-9.6 1-.3 2.5-.4 3.5-.1.4 2.3 1.1 4.8 2 6.9.1.2.2.4.2.6 0-.2.1-.4.2-.6.9-2 1.4-4.5 1.7-6.9l1.3-.1c.6 0 1.3.2 1.9.3zm5 8.3c0-2.6 4-2.6 4 0 0 2.5-4 2.6-4 0z"/><path d="M311.6 11.8h-46.3c-5.5 0-5.5-8.6 0-8.6h46.3c5.5 0 5.5 8.6 0 8.6zM274 64.3c-2.2 0-4.1-1.8-4.2-4-.1-2.3 1.7-4.3 4-4.5 11.7-.6 30.7-4.8 33.3-25.5 0-.2 0-.7-.5-.7h-41.2c-5.5 0-5.5-8.6 0-8.6h46.3c7 0 3.9 12 2.8 16-1.4 5.2-4 10-7.6 14-8.2 9.1-20.6 12.7-32.5 13.3h-.4zm56.7-7.5c-.5 0-1.1-.1-1.6-.3-2.2-.9-3.2-3.4-2.3-5.6l5.9-14.3c2.1-5.1 10-1.8 7.9 3.3l-5.9 14.3c-.8 1.6-2.3 2.6-4 2.6zm53.6.2c-1.7 0-3.3-1-3.9-2.7l-5.9-14.6c-.9-2.2.2-4.7 2.3-5.5 2.2-.9 4.7.2 5.5 2.3l5.9 14.6c.9 2.2-.2 4.7-2.3 5.5-.5.3-1.1.4-1.6.4zm.6-55.6c5.7 0 5.7 8.8 0 8.8s-5.7-8.8 0-8.8zm-11.5 3.7c3.8 0 3.7 5.8 0 5.8s-3.8-5.8 0-5.8zM385.8 18h-25.2V4.8c0-5.5-8.6-5.5-8.6 0V18h-23.2c-5.5 0-5.5 8.6 0 8.6H352v36c0 5.5 8.6 5.5 8.6 0v-36h25.2c5.5 0 5.5-8.6 0-8.6zM167.2 1.5h-45.4c-4.7 0-8.5 3.8-8.5 8.5v46.1c0 4.7 3.8 8.5 8.5 8.5h45.4c4.7 0 8.5-3.8 8.5-8.5V10c0-4.7-3.8-8.5-8.5-8.5zm-45.4 54V10.8c0-.4.3-.8.6-.8h9.8v15.5c0 2.4 0 8.1-4.6 12.5-3.5 3.5 1.8 9 5.3 5.5 6.9-6.6 6.9-14.9 6.9-18V10h26.5s.9.6.9 1v27.6c-.1.4-.3.6-.5.8-.6.9-1.4.9-2 1.1h-8.3c-1 0-1.2-.1-1.2-1.2V21c0-4.9-7.6-4.9-7.6 0v18.3c0 5.3 3.5 8.8 8.8 8.8h8c.9 0 1.7-.1 2.8-.8v8c0 .3-.2.8-.7.8h-44.1c-.4 0-.6-.2-.6-.6zm73-51.8c6.6 0 6.6 10.2 0 10.2s-6.6-10.2 0-10.2zm45.7 0c6.6 0 6.6 10.2 0 10.2s-6.6-10.2 0-10.2zm7.2 30.8c-.3 0-.5 0-.8-.1-13.7-2.7-23.6-10-27.9-15.4-.2-.3-1-1.7-1.5-.9l-.3.5c-.1.1-.2.2-.3.4-9.1 11.5-23.4 14.3-27.5 14.8-5.4.7-6.6-7.7-1.2-8.4 2.4-.3 14.6-2.4 21.9-11.5 1.7-2.6 3.9-5.3 7.2-5.5 3.7-.2 6.2 2.6 8.3 5.3 2.5 3.2 10.6 10 22.8 12.3 2.3.4 3.8 2.7 3.4 5-.4 2.1-2.1 3.5-4.1 3.5zm-19.2 31.2h-21.2c-7 0-12.8-5.7-12.8-12.8v-6.1c0-7 5.7-12.8 12.8-12.8h21.2c7 0 12.8 5.7 12.8 12.8v6.1c0 7.1-5.7 12.8-12.8 12.8zm-21.2-23.1c-2.3 0-4.3 1.9-4.3 4.3V53c0 2.3 1.9 4.3 4.3 4.3h21.2c2.3 0 4.3-1.9 4.3-4.3v-6.1c0-2.3-1.9-4.3-4.3-4.3h-21.2z"/></svg>